<svg xmlns="http://www.w3.org/2000/svg" width="900" height="900" viewBox="0 0 900 900" version="1.1">
	<path d="M 254.326 200.045 C 243.376 202.210, 233.152 210.091, 228.667 219.824 C 226.919 223.619, 226.512 226.384, 226.507 234.500 C 226.501 243.314, 226.824 245.192, 229.235 250.338 C 230.739 253.548, 233.154 257.598, 234.601 259.338 C 238.174 263.632, 311.263 338.076, 416.391 444.500 C 434.320 462.650, 448.992 478.212, 448.995 479.082 C 449 480.669, 441.870 488.004, 413 516.114 C 391.135 537.403, 269.684 657.225, 256.804 670.214 C 248.240 678.851, 245.351 682.534, 242.304 688.698 C 238.701 695.988, 238.500 696.900, 238.500 705.947 C 238.500 714.035, 238.872 716.255, 240.923 720.423 C 243.956 726.585, 249.941 732.645, 255.351 735.032 C 266.110 739.779, 283.215 740.060, 295.664 735.694 C 311.180 730.253, 309.434 731.874, 430.114 610.894 C 492.051 548.802, 542.997 498, 543.328 498 C 543.658 498, 544.076 544.012, 544.256 600.250 C 544.541 689.400, 544.783 703.141, 546.141 707.500 C 550.618 721.868, 558.815 730.890, 571.699 735.630 C 578.861 738.265, 580.566 738.494, 592.500 738.427 C 604.163 738.361, 606.217 738.074, 612.471 735.638 C 625.341 730.626, 633.279 722.271, 637.293 709.513 L 639.500 702.500 639.500 469.500 C 639.500 245.996, 639.425 236.257, 637.658 230.530 C 633.048 215.586, 625.655 207.414, 611.784 201.927 C 604.238 198.943, 585.903 198.134, 577.083 200.398 C 561.287 204.451, 551.110 214.465, 546.269 230.720 C 544.696 236, 544.520 245.671, 544.239 342.485 C 544.069 400.777, 543.598 448.802, 543.192 449.208 C 542.786 449.614, 490.489 397.938, 426.977 334.372 C 363.464 270.806, 308.024 215.964, 303.776 212.501 C 295.084 205.414, 290.189 202.782, 281.540 200.543 C 275.215 198.906, 261.368 198.652, 254.326 200.045" stroke="none" fill="#ffc0cb" fill-rule="evenodd"/>
</svg>